# xmcd CD database file
# Copyright (C) 1993-1996 Ti Kan
#
# Track frame offsets:
# 150
# 8810
# 23687
# 39187
# 55357
# 69992
# 93652
# 104707
# 126885
# 142392
# 158055
# 180817
# 196745
# 214375
#
# Disc length: 3116 seconds
#
# Revision: 0
# Processed by: cddbd v1.4b41PL1 Copyright (c) Steve Scherf et al.
# Submitted via: inCDius 1.1b5
#
DISCID=c00c2a0e
DTITLE=B. B. King - Catfish Blues
DYEAR=1900
DGENRE=
TTITLE0=A New Way of Driving
TTITLE1=B. B. Boogie
TTITLE2=Walkin' and Cryin'
TTITLE3=It's My Own Fault Baby'
TTITLE4=Mr. Pawnbroker
TTITLE5=You've Done Lost Your Good Thing Now
TTITLE6=Catfish Blues
TTITLE7=Paying the Cost to be the Boss
TTITLE8=How Blue Can You Get
TTITLE9=The Letter
TTITLE10=Everyday I Have the Blues
TTITLE11=Long Nights
TTITLE12=Evil Child
TTITLE13=Sweet Sixteen
EXTD=
EXTT0=
EXTT1=
EXTT2=
EXTT3=
EXTT4=
EXTT5=
EXTT6=
EXTT7=
EXTT8=
EXTT9=
EXTT10=
EXTT11=
EXTT12=
EXTT13=
PLAYORDER=
